<svg width="170" height="50" viewBox="0 0 170 50" fill="none" xmlns="http://www.w3.org/2000/svg">
<path d="M4.64912 18.9537C4.64912 19.9829 4.64912 21.0978 4.64912 22.2985C4.64912 23.4992 4.73684 24.6999 4.73684 25.8148C4.82456 26.9297 4.91228 27.7874 5.08772 28.5592C5.26316 29.3311 5.52632 29.6741 5.87719 29.6741H0C0.350877 29.6741 0.614035 29.3311 0.789474 28.645C0.964912 27.9589 1.05263 27.0155 1.14035 25.9863C1.22807 24.9572 1.22807 23.7565 1.22807 22.5558C1.22807 21.3551 1.22807 20.2402 1.22807 19.211V11.1493C1.22807 10.1201 1.22807 9.09096 1.22807 7.80451C1.22807 6.60382 1.14035 5.40314 1.14035 4.37398C1.05263 3.34482 0.964912 2.48719 0.789474 1.80108C0.614035 1.02921 0.350877 0.686157 0 0.686157H5.87719C5.52632 0.686157 5.26316 1.02921 5.08772 1.80108C5 2.48719 4.82456 3.43058 4.82456 4.54551C4.73684 5.57466 4.64912 6.77535 4.64912 7.97604C4.64912 9.17672 4.64912 10.2916 4.64912 11.3208V14.6656H19.1228V11.1493C19.1228 10.1201 19.1228 9.09096 19.1228 7.80451C19.1228 6.51806 19.0351 5.40314 19.0351 4.37398C18.9474 3.34482 18.8596 2.40142 18.6842 1.71532C18.5088 1.02921 18.2456 0.686157 17.8947 0.686157H23.7719C23.4211 0.686157 23.1579 1.02921 22.9825 1.80108C22.807 2.48719 22.7193 3.43058 22.6316 4.54551C22.5439 5.66043 22.5439 6.77535 22.5439 8.0618V11.4066V18.9537V22.2985C22.5439 23.4992 22.5439 24.6999 22.6316 25.8148C22.7193 26.9297 22.807 27.7874 22.9825 28.5592C23.1579 29.3311 23.4211 29.6741 23.7719 29.6741H17.8947C18.2456 29.6741 18.5088 29.3311 18.6842 28.645C18.8596 27.9589 18.9474 27.0155 19.0351 25.9863C19.1228 24.9572 19.1228 23.7565 19.1228 22.5558C19.1228 21.3551 19.1228 20.2402 19.1228 19.211V15.1802H4.64912V18.9537Z" fill="#F2ECE3"/>
<path d="M66.8421 18.9537C66.8421 19.9829 66.8421 21.0978 66.8421 22.2985C66.8421 23.4992 66.9298 24.6999 66.9298 25.8148C67.0176 26.9297 67.1053 27.7874 67.2807 28.5592C67.4561 29.3311 67.7193 29.6741 68.0702 29.6741H62.193C62.5439 29.6741 62.807 29.3311 62.9825 28.645C63.1579 27.9589 63.2456 27.0155 63.3333 25.9863C63.4211 24.9572 63.4211 23.7565 63.4211 22.5558C63.4211 21.3551 63.4211 20.2402 63.4211 19.211V11.1493V11.3208V7.97604C63.4211 6.77535 63.4211 5.57466 63.3333 4.45974C63.2456 3.43058 63.1579 2.48719 62.9825 1.80108C62.807 1.11497 62.5439 0.686157 62.193 0.686157H73.5088C75.2632 0.686157 76.7544 0.857684 78.0702 1.20074C79.2982 1.54379 80.3509 2.05837 81.2281 2.65871C82.0175 3.25906 82.6316 3.94516 82.9825 4.71703C83.3333 5.4889 83.5088 6.34653 83.5088 7.20417C83.5088 8.23333 83.3333 9.09096 82.8947 9.86283C82.4561 10.6347 81.9298 11.235 81.3158 11.8354C80.7018 12.4357 80 12.8645 79.2105 13.2934C78.5088 13.7222 77.807 14.151 77.1053 14.494C76.4912 14.8371 75.9649 15.1802 75.5263 15.5232C75.0877 15.8663 74.9123 16.2951 74.9123 16.7239C74.9123 17.1527 75.1754 17.7531 75.614 18.5249C76.0526 19.2968 76.6667 20.1544 77.4561 21.0121C78.2456 21.9555 79.0351 22.8131 80 23.7565C80.9649 24.6999 81.9298 25.5575 82.8947 26.4151C83.8596 27.187 84.8246 27.8731 85.7018 28.4735C86.5789 29.0738 87.3684 29.3311 88.0702 29.5026H81.2281C80.1754 28.7308 79.2105 27.7874 78.2456 26.7582C77.2807 25.729 76.4912 24.6999 75.7895 23.6707C75.0877 22.6416 74.4737 21.6124 74.0351 20.5832C73.5965 19.5541 73.4211 18.7822 73.4211 18.0103C73.4211 17.2385 73.7719 16.5524 74.4737 15.952C75.1754 15.3517 75.8772 14.6656 76.6667 13.9795C77.4561 13.2934 78.1579 12.4357 78.8597 11.4066C79.5614 10.4632 79.8246 9.17672 79.8246 7.63298C79.8246 5.57466 79.2982 3.94516 78.2456 2.74448C77.193 1.54379 75.5263 0.943447 73.4211 0.943447H66.7544V18.9537H66.8421Z" fill="#F2ECE3"/>
<path d="M132.807 18.9537C132.807 19.9829 132.807 21.0978 132.807 22.2985C132.807 23.4992 132.895 24.6999 132.895 25.8148C132.982 26.9297 133.07 27.7873 133.246 28.5592C133.421 29.3311 133.684 29.6741 133.947 29.6741H128.07C128.421 29.6741 128.596 29.3311 128.772 28.645C128.947 27.9589 129.035 27.0155 129.123 25.9863C129.21 24.9572 129.298 23.7565 129.298 22.5558C129.298 21.3551 129.298 20.2402 129.298 19.211V15.8662L123.772 6.68957C122.895 5.23159 122.105 4.03091 121.316 2.91599C120.526 1.80106 119.912 1.11496 119.474 0.857666H125C124.737 0.857666 124.649 1.02919 124.825 1.45801C124.912 1.80106 125.175 2.31564 125.439 2.91599C125.702 3.51633 126.053 4.11667 126.491 4.71701C126.842 5.40312 127.193 6.00346 127.544 6.51804L132.456 14.5798L137.193 6.43228C137.544 5.83194 137.895 5.14583 138.246 4.54549C138.596 3.85938 138.947 3.3448 139.123 2.83022C139.386 2.31564 139.561 1.88683 139.649 1.54377C139.737 1.20072 139.649 1.02919 139.474 1.02919H141.667C141.579 1.02919 141.316 1.20072 141.053 1.54377C140.789 1.88683 140.439 2.31564 140.088 2.83022C139.737 3.3448 139.298 3.94514 138.947 4.63125C138.509 5.31736 138.158 6.00346 137.719 6.60381L132.719 15.2659V16.1235V18.9537H132.807Z" fill="#F2ECE3"/>
<path d="M39.4737 41.8525H43.0702C43.5088 41.8525 44.0351 41.9383 44.386 42.1956C44.8245 42.4529 45.0877 42.7102 45.3509 43.139C45.614 43.5678 45.7017 43.9966 45.7017 44.4254C45.7017 44.94 45.614 45.3688 45.3509 45.7119C45.0877 46.0549 44.7368 46.398 44.386 46.6553L45.7017 49.7428H44.2105L43.0702 47.1699H40.8772V49.9143H39.4737V41.8525ZM43.0702 45.7976C43.421 45.7976 43.7719 45.7119 44.0351 45.4546C44.2982 45.1973 44.386 44.94 44.386 44.5112C44.386 44.0824 44.2982 43.8251 44.0351 43.5678C43.7719 43.3105 43.5088 43.2248 43.0702 43.2248H40.7895V45.7976H43.0702Z" fill="#F2ECE3"/>
<path d="M49.4737 41.8525H55.4386V43.2248H50.8772V45.1973H53.1579V46.5695H50.8772V48.5421H55.4386V49.9143H49.4737V41.8525Z" fill="#F2ECE3"/>
<path d="M60.3509 49.5712C59.7368 49.3139 59.2105 48.9708 58.6842 48.4563L59.7368 47.5129C60.0877 47.8559 60.4386 48.1132 60.8772 48.2847C61.3158 48.4563 61.7544 48.542 62.2807 48.542C62.6316 48.542 63.0702 48.4563 63.3333 48.3705C63.5088 48.2847 63.6842 48.199 63.8596 48.1132C64.0351 48.0274 64.1228 47.8559 64.1228 47.5986C64.1228 47.2556 64.0351 47.084 63.9474 46.9125C63.8596 46.741 63.5965 46.6552 63.3333 46.5695C63.0702 46.4837 62.6316 46.3979 62.0175 46.3979C61.4035 46.3122 60.8772 46.2264 60.5263 46.1407C60.0877 46.0549 59.7368 45.7976 59.386 45.4545C59.0351 45.1115 58.9474 44.6827 58.9474 43.9966C58.9474 43.6535 59.0351 43.2247 59.2982 42.9674C59.4737 42.6244 59.8246 42.3671 60.2631 42.1955C60.7895 41.9383 61.4912 41.7667 62.3684 41.7667C62.9824 41.7667 63.5965 41.8525 64.1228 42.024C64.7368 42.1955 65.1754 42.4528 65.614 42.7101L64.7368 43.825C64.4737 43.5678 64.0351 43.3962 63.5965 43.3105C63.1579 43.2247 62.7193 43.1389 62.2807 43.1389C61.6667 43.1389 61.2281 43.2247 60.7895 43.3962C60.4386 43.5678 60.3509 43.7393 60.3509 43.9966C60.3509 44.2539 60.4386 44.4254 60.5263 44.5111C60.614 44.5969 60.7895 44.7684 61.0526 44.7684C61.3158 44.8542 61.7544 44.94 62.2807 44.94C62.8947 45.0257 63.421 45.1115 63.8596 45.1973C64.2982 45.283 64.6491 45.5403 65 45.8834C65.3509 46.2264 65.5263 46.741 65.5263 47.4271C65.5263 47.8559 65.3509 48.2847 65.0877 48.6278C64.8246 48.9708 64.386 49.2281 63.8596 49.4854C63.421 49.6569 62.8947 49.7427 62.2807 49.7427C61.5789 50 60.9649 49.8285 60.3509 49.5712Z" fill="#F2ECE3"/>
<path d="M70.614 41.8525H69.2105V49.9143H70.614V41.8525Z" fill="#F2ECE3"/>
<path d="M74.8246 41.8525H77.4562C78.1579 41.8525 78.8597 42.0241 79.4737 42.3671C80.0877 42.7102 80.6141 43.2248 80.9649 43.8251C81.3158 44.4254 81.4913 45.1115 81.4913 45.8834C81.4913 46.5695 81.3158 47.2556 80.9649 47.856C80.6141 48.4563 80.0877 48.9709 79.4737 49.3139C78.8597 49.657 78.1579 49.8285 77.4562 49.8285H74.8246V41.8525ZM77.4562 48.5421C77.9825 48.5421 78.4211 48.4563 78.8597 48.199C79.2983 47.9417 79.6492 47.5987 79.8246 47.2556C80.0878 46.8268 80.1755 46.398 80.1755 45.8834C80.1755 45.3688 80.0878 44.94 79.8246 44.5112C79.5614 44.0824 79.2106 43.7393 78.8597 43.5678C78.4211 43.3105 77.9825 43.2248 77.4562 43.2248H76.1404V48.5421H77.4562Z" fill="#F2ECE3"/>
<path d="M85.1754 41.8525H91.0526V43.2248H86.579V45.1973H88.8597V46.5695H86.579V48.5421H91.0526V49.9143H85.1754V41.8525Z" fill="#F2ECE3"/>
<path d="M94.8245 41.8525H96.228L100.263 47.5987V41.8525H101.579V49.9143H100.175L96.228 44.2539V49.9143H94.8245V41.8525Z" fill="#F2ECE3"/>
<path d="M107.105 49.3997C106.491 49.0566 105.965 48.5421 105.614 47.9417C105.263 47.3414 105.088 46.6553 105.088 45.8834C105.088 45.1115 105.263 44.4254 105.614 43.8251C105.965 43.2247 106.491 42.7102 107.105 42.3671C107.719 42.0241 108.421 41.8525 109.211 41.8525C109.825 41.8525 110.439 42.0241 111.053 42.2814C111.667 42.5386 112.105 42.9675 112.544 43.482L111.403 44.2539C111.14 43.9109 110.789 43.6536 110.439 43.482C110.088 43.3105 109.649 43.2248 109.211 43.2248C108.684 43.2248 108.246 43.3105 107.807 43.5678C107.368 43.8251 107.018 44.1681 106.842 44.5112C106.579 44.94 106.491 45.3688 106.491 45.8834C106.491 46.398 106.579 46.8268 106.842 47.2556C107.105 47.6844 107.456 48.0275 107.807 48.199C108.246 48.4563 108.684 48.5421 109.211 48.5421C109.649 48.5421 110.088 48.4563 110.439 48.2848C110.789 48.1133 111.14 47.856 111.403 47.5129L112.544 48.2848C112.193 48.7994 111.667 49.2282 111.053 49.4855C110.439 49.7428 109.825 49.9143 109.211 49.9143C108.421 49.9143 107.719 49.7428 107.105 49.3997Z" fill="#F2ECE3"/>
<path d="M115.965 41.8525H121.842V43.2248H117.281V45.1973H119.561V46.5695H117.281V48.5421H121.842V49.9143H115.965V41.8525Z" fill="#F2ECE3"/>
<path d="M126.754 49.5712C126.14 49.3139 125.614 48.9708 125.088 48.4563L126.14 47.5129C126.491 47.8559 126.842 48.1132 127.281 48.2847C127.719 48.4563 128.158 48.542 128.684 48.542C129.035 48.542 129.474 48.4563 129.737 48.3705C129.912 48.2847 130.088 48.199 130.263 48.1132C130.439 48.0274 130.526 47.8559 130.526 47.5986C130.526 47.2556 130.439 47.084 130.351 46.9125C130.263 46.741 130 46.6552 129.737 46.5695C129.474 46.4837 129.035 46.3979 128.421 46.3979C127.807 46.3122 127.281 46.2264 126.93 46.1407C126.491 46.0549 126.14 45.7976 125.789 45.4545C125.439 45.1115 125.351 44.6827 125.351 43.9966C125.351 43.6535 125.439 43.2247 125.702 42.9674C125.877 42.6244 126.228 42.3671 126.667 42.1955C127.193 41.9383 127.895 41.7667 128.772 41.7667C129.386 41.7667 130 41.8525 130.526 42.024C131.14 42.1955 131.579 42.4528 132.018 42.7101L131.14 43.825C130.877 43.5678 130.439 43.3962 130 43.3105C129.561 43.2247 129.123 43.1389 128.684 43.1389C128.07 43.1389 127.632 43.2247 127.193 43.3962C126.842 43.5678 126.754 43.7393 126.754 43.9966C126.754 44.2539 126.842 44.4254 126.93 44.5111C127.018 44.5969 127.193 44.7684 127.456 44.7684C127.719 44.8542 128.158 44.94 128.684 44.94C129.298 45.0257 129.825 45.1115 130.263 45.1973C130.702 45.283 131.053 45.5403 131.404 45.8834C131.754 46.2264 131.93 46.741 131.93 47.4271C131.93 47.8559 131.754 48.2847 131.491 48.6278C131.228 48.9708 130.789 49.2281 130.263 49.4854C129.825 49.6569 129.298 49.7427 128.684 49.7427C128.07 50 127.456 49.8285 126.754 49.5712Z" fill="#F2ECE3"/>
<path d="M111.228 29.5883H117.807C117.544 29.5883 117.281 29.4168 116.93 29.1595C116.667 28.9022 116.404 28.4734 116.053 28.0446C115.789 27.6158 115.439 27.0154 115.175 26.4151C114.912 25.8147 114.649 25.2144 114.386 24.5283L104.123 0H103.86L93.8597 24.7856C93.5965 25.3859 93.3333 25.9005 93.1579 26.5009C92.8947 27.1012 92.7193 27.53 92.4561 28.0446C92.193 28.4734 92.0175 28.9022 91.8421 29.1595C91.6667 29.4168 91.4912 29.5883 91.3158 29.5883H93.3333C93.0702 29.5883 93.0702 29.2453 93.2456 28.4734L96.4035 20.669H109.123L110.439 24.0137C110.702 24.6141 110.877 25.2144 111.14 25.9005C111.404 26.5866 111.579 27.187 111.667 27.7015C111.754 28.2161 111.842 28.7307 111.754 29.0738C111.754 29.331 111.579 29.5883 111.228 29.5883ZM108.772 19.8971H96.579L102.632 4.88851L108.772 19.8971Z" fill="#F2ECE3"/>
<path d="M163.421 29.5883H170C169.737 29.5883 169.474 29.4168 169.123 29.1595C168.86 28.9022 168.596 28.4734 168.246 28.0446C167.982 27.6158 167.632 27.0154 167.368 26.4151C167.105 25.8147 166.842 25.2144 166.579 24.5283L156.316 0H156.053L146.053 24.7856C145.789 25.3859 145.526 25.9005 145.351 26.5009C145.088 27.1012 144.912 27.53 144.649 28.0446C144.386 28.4734 144.211 28.9022 144.035 29.1595C143.86 29.4168 143.684 29.5883 143.509 29.5883H145.526C145.263 29.5883 145.263 29.2453 145.439 28.4734L148.596 20.669H161.316L162.632 24.0137C162.895 24.6141 163.07 25.2144 163.333 25.9005C163.596 26.5866 163.772 27.187 163.86 27.7015C163.947 28.2161 164.035 28.7307 163.947 29.0738C163.947 29.331 163.772 29.5883 163.421 29.5883ZM160.965 19.8971H148.772L154.825 4.88851L160.965 19.8971Z" fill="#F2ECE3"/>
<path d="M49.7368 29.5883H56.3158C56.0526 29.5883 55.7895 29.4168 55.4386 29.1595C55.1754 28.9022 54.9123 28.4734 54.5614 28.0446C54.2982 27.6158 53.9474 27.0154 53.6842 26.4151C53.4211 25.8147 53.1579 25.2144 52.8947 24.5283L42.6316 0H42.3684L32.2807 24.7856C32.0175 25.3859 31.7544 25.9005 31.579 26.5009C31.3158 27.1012 31.1404 27.53 30.8772 28.0446C30.614 28.4734 30.4386 28.9022 30.2632 29.1595C30.0877 29.4168 29.9123 29.5883 29.7368 29.5883H31.7544C31.4912 29.5883 31.4912 29.2453 31.6667 28.4734L34.8246 20.669H47.5439L48.8597 24.0137C49.1228 24.6141 49.2982 25.2144 49.5614 25.9005C49.8246 26.5866 50 27.187 50.0877 27.7015C50.1754 28.2161 50.2632 28.7307 50.1754 29.0738C50.1754 29.331 50 29.5883 49.7368 29.5883ZM47.193 19.8971H35L41.0526 4.88851L47.193 19.8971Z" fill="#F2ECE3"/>
</svg>
